<svg id="Capa_1" data-name="Capa 1" xmlns="http://www.w3.org/2000/svg" xmlns:xlink="http://www.w3.org/1999/xlink" viewBox="0 0 200 200"><defs><style>.cls-1{fill:none;}.cls-2{clip-path:url(#clip-path);}.cls-3{fill:url(#Degradado_sin_nombre_3);}.cls-4{fill:url(#Degradado_sin_nombre_2);}.cls-5{fill:#3ebced;}.cls-6{fill:#fff;}</style><clipPath id="clip-path"><path class="cls-1" d="M181.11,44.29,107.69,2.13a17.14,17.14,0,0,0-15.38,0L18.89,44.29c-4.23,2.43-7.69,8.39-7.69,13.25v84.33a16.71,16.71,0,0,0,7.69,13.25l73.42,42.17a17.14,17.14,0,0,0,15.38,0l73.42-42.17a16.41,16.41,0,0,0,7.69-13.25V57.54A17.33,17.33,0,0,0,181.11,44.29Z"/></clipPath><linearGradient id="Degradado_sin_nombre_3" x1="133.89" y1="761.36" x2="184.2" y2="696.96" gradientTransform="matrix(1, 0, 0, -1, 0, 842.11)" gradientUnits="userSpaceOnUse"><stop offset="0" stop-color="#2daeda"/><stop offset="1" stop-color="#2daeda"/></linearGradient><linearGradient id="Degradado_sin_nombre_2" x1="56.36" y1="715.25" x2="109.89" y2="646.74" gradientTransform="matrix(1, 0, 0, -1, 0, 842.11)" gradientUnits="userSpaceOnUse"><stop offset="0" stop-color="#088fba"/><stop offset="1" stop-color="#088fba"/></linearGradient></defs><g class="cls-2"><path class="cls-3" d="M98.09,48.64h104.4v106.2H98.09Z"/><path class="cls-4" d="M202.49,158.65,68.13,81.31H-.48v128h203Z"/><path class="cls-5" d="M-.48,157.6l203-116.83V-5.33H-.48Z"/></g><path class="cls-6" d="M40.8,99.71c-.35-57.5,77.08-82.89,110.47-29.46L125.65,85C110.18,59.55,71.78,68.65,70.4,99.71c.41,28.63,38.16,41.93,55.25,14.71l25.62,14.75C121.84,180,42.28,161.7,40.8,99.71ZM138.45,83h4.88l-3.33,32h-5Zm10.46,0h4.88l-3.34,32h-5ZM133,90.62h24.4v4.69H133ZM131.62,102H156v4.69h-24.4Z"/></svg>