<svg id="Capa_1" data-name="Capa 1" xmlns="http://www.w3.org/2000/svg" viewBox="0 0 200 200"><defs><style>.cls-1{fill:#3ebced;}</style></defs><path class="cls-1" d="M164.18,25.16c0-11.54-35.84-20.89-80.06-20.89S4.05,13.62,4.05,25.16,39.9,46,84.12,46,164.18,36.69,164.18,25.16Z"/><path class="cls-1" d="M166.87,113.31a43,43,0,0,0-4.75-.84,41.81,41.81,0,0,0-45.92,33.71,40.62,40.62,0,0,0-.75,7.78,41.77,41.77,0,1,0,51.42-40.65Zm-17.63,64a3.48,3.48,0,0,1-4.92,0l-19.7-19.7a3.48,3.48,0,0,1,4.93-4.92l17.23,17.23L183.7,133a3.49,3.49,0,0,1,4.93,4.93Z"/><path class="cls-1" d="M4.05,171.37c0,8.72,30.46,20.88,80.07,20.88a253.13,253.13,0,0,0,39.56-2.94c-.67-.64-1.27-1.33-1.91-2-.39-.41-.8-.81-1.17-1.24a48.13,48.13,0,0,1-3.38-4.28c-.08-.12-.14-.24-.22-.35a48.18,48.18,0,0,1-2.62-4.29c-.28-.52-.52-1.07-.79-1.6-.54-1.11-1-2.22-1.52-3.36-.25-.62-.48-1.26-.7-1.9-.39-1.1-.74-2.22-1-3.36-.18-.65-.35-1.3-.52-2-.28-1.22-.49-2.44-.69-3.7-.09-.58-.2-1.16-.27-1.74a49.46,49.46,0,0,1-.37-5.57c0-1.52.08-3,.22-4.52-2.17.19-4.4.29-6.61.43-1.44.09-2.85.2-4.3.27-4.53.22-9.08.35-13.68.35q-2.69,0-5.37-.06l-1.3,0c-1.78,0-3.56-.1-5.33-.18l-.42,0-5-.27-1.3-.09c-1.74-.12-3.48-.24-5.22-.4l-.63-.06c-1.57-.14-3.12-.29-4.66-.46l-1.26-.14c-1.69-.2-3.35-.41-5-.63l-.87-.12c-1.43-.2-2.85-.42-4.26-.64l-1.17-.19c-1.59-.27-3.16-.54-4.7-.84l-.93-.18c-1.32-.26-2.62-.54-3.9-.83l-1.05-.23c-1.47-.33-2.9-.68-4.3-1l-.94-.25q-1.78-.48-3.48-1l-.88-.27c-1.31-.41-2.57-.83-3.8-1.27L17.5,141q-1.58-.58-3.06-1.2l-.64-.29c-1.12-.48-2.19-1-3.22-1.49l-.73-.37c-.89-.46-1.74-.93-2.56-1.41L6.85,136c-.9-.55-1.74-1.12-2.52-1.7l-.26-.18Z"/><path class="cls-1" d="M4.05,122.63c0,8.72,30.46,20.89,80.07,20.89,4.62,0,9.2-.13,13.73-.35,1.49-.08,2.94-.21,4.42-.31,2.57-.17,5.13-.35,7.66-.59.07-.27.16-.53.23-.8q.25-1,.57-1.95c.2-.64.43-1.39.69-2.06s.48-1.27.73-1.91.55-1.3.84-1.94.58-1.23.89-1.84.65-1.23,1-1.83.7-1.17,1-1.74.74-1.16,1.13-1.74.77-1.1,1.17-1.64.84-1.09,1.28-1.63.85-1,1.29-1.53.94-1,1.42-1.52.92-1,1.39-1.41,1-.94,1.55-1.39,1-.87,1.5-1.28,1.11-.86,1.68-1.27,1-.78,1.57-1.14,1.21-.77,1.82-1.15,1.08-.7,1.64-1,1.29-.69,1.94-1,1.12-.58,1.7-.84,1.39-.58,2.08-.87,1.14-.47,1.72-.69,1.48-.48,2.23-.7c.57-.17,1.13-.37,1.71-.52.8-.21,1.61-.37,2.41-.54.56-.12,1.1-.26,1.66-.35.91-.16,1.83-.26,2.75-.37.48-.06.95-.14,1.43-.18,1.39-.13,2.83-.19,4.27-.19,1.7,0,3.41.11,5.1.29l1,.11c.29,0,.57,0,.85.09V85.36l-.26.18c-.79.58-1.62,1.15-2.52,1.7l-.45.26q-1.22.72-2.55,1.41l-.73.38c-1,.5-2.09,1-3.22,1.48l-.66.27q-1.49.61-3.06,1.2l-.86.31c-1.23.44-2.5.86-3.81,1.27l-.88.26c-1.14.35-2.3.68-3.48,1l-.93.25c-1.4.37-2.83.72-4.31,1l-1,.23c-1.28.29-2.59.56-3.91.82l-.93.19c-1.54.3-3.1.58-4.7.84l-1.17.19c-1.39.22-2.82.44-4.26.64l-.86.12c-1.65.23-3.31.44-5,.63l-1.26.13c-1.54.17-3.1.33-4.66.47l-.63.06c-1.74.15-3.48.28-5.22.4l-1.34.1q-2.47.15-5,.27l-.41,0c-1.78.08-3.55.14-5.33.18l-1.3,0c-1.8,0-3.59.06-5.38.06s-3.58,0-5.37-.06l-1.3,0c-1.78,0-3.56-.1-5.33-.18l-.42,0q-2.49-.12-5-.27l-1.3-.09c-1.74-.12-3.48-.24-5.22-.4l-.63-.06c-1.56-.14-3.12-.29-4.66-.46L53.65,100c-1.68-.2-3.35-.41-5-.63l-.88-.11c-1.43-.2-2.85-.41-4.26-.64l-1.17-.19c-1.59-.26-3.16-.54-4.7-.84l-.93-.18c-1.32-.26-2.62-.54-3.9-.82l-1.05-.23c-1.47-.33-2.9-.68-4.3-1.05l-.94-.25q-1.78-.48-3.48-1l-.88-.27c-1.31-.4-2.57-.83-3.8-1.26l-.86-.32c-1.05-.38-2.07-.78-3.06-1.19l-.64-.3c-1.12-.48-2.19-1-3.22-1.48l-.73-.38C9,88.45,8.11,88,7.29,87.5l-.44-.26c-.9-.55-1.74-1.12-2.52-1.7l-.26-.18Z"/><path class="cls-1" d="M4.05,73.89c0,8.71,30.46,20.89,80.07,20.89s80.06-12.18,80.06-20.89V36.62c-.08.07-.18.12-.26.19-.79.58-1.62,1.14-2.52,1.7l-.44.25c-.81.48-1.67,1-2.56,1.4l-.73.37c-1,.51-2.09,1-3.22,1.48l-.66.28c-1,.41-2,.81-3.06,1.19l-.86.32c-1.23.43-2.5.86-3.81,1.27l-.88.26c-1.14.35-2.29.67-3.48,1l-.93.25c-1.39.36-2.83.71-4.31,1l-1,.23c-1.28.29-2.58.56-3.91.82l-.92.19c-1.54.29-3.11.57-4.71.83l-1.17.19c-1.39.23-2.82.45-4.26.65l-.86.12c-1.65.23-3.31.44-5,.62l-1.26.14c-1.54.17-3.1.32-4.66.47l-.63.06c-1.74.15-3.48.28-5.22.4l-1.3.11q-2.47.16-5,.27l-.41,0c-1.78.08-3.55.14-5.33.18l-1.3,0c-1.8,0-3.59.06-5.38.06s-3.58,0-5.37-.06l-1.3,0c-1.78,0-3.56-.1-5.33-.18l-.42,0q-2.49-.11-5-.27l-1.3-.09Q62.81,52.2,60.2,52l-.63-.06c-1.56-.15-3.12-.3-4.66-.47l-1.26-.14c-1.68-.19-3.35-.4-5-.62l-.88-.11c-1.43-.2-2.85-.42-4.26-.64l-1.17-.19c-1.59-.27-3.16-.55-4.7-.84l-.93-.19c-1.32-.26-2.62-.53-3.9-.82l-1.05-.23c-1.47-.33-2.9-.68-4.3-1l-.94-.25c-1.19-.33-2.35-.66-3.48-1l-.88-.26c-1.31-.41-2.57-.83-3.8-1.27l-.86-.32c-1.05-.38-2.07-.78-3.06-1.19L13.8,42c-1.12-.48-2.19-1-3.22-1.48l-.73-.38c-.89-.45-1.74-.93-2.56-1.39l-.44-.26C6,38,5.11,37.4,4.33,36.82l-.26-.18Z"/></svg>