<svg xmlns="http://www.w3.org/2000/svg" xmlns:xlink="http://www.w3.org/1999/xlink" viewBox="0 0 200 200"><defs><style>.cls-1,.cls-4{fill:#fff;}.cls-2{fill:url(#Degradado_sin_nombre);}.cls-3{fill:#ebebeb;fill-opacity:0;}.cls-3,.cls-4{isolation:isolate;opacity:0.99;}.cls-4{fill-opacity:0.92;}.cls-5{fill:#3ebced;}.cls-6{fill:url(#Degradado_sin_nombre-2);}.cls-7{fill:url(#Degradado_sin_nombre-3);}.cls-8{fill:#f4f3f4;}</style><linearGradient id="Degradado_sin_nombre" x1="1" y1="102.86" x2="51.66" y2="102.86" gradientTransform="matrix(1, 0, 0, -1, 0, 199.89)" gradientUnits="userSpaceOnUse"><stop offset="0" stop-color="#2daeda"/><stop offset="1" stop-color="#2daeda"/></linearGradient><linearGradient id="Degradado_sin_nombre-2" x1="149.34" y1="102.86" x2="200" y2="102.86" xlink:href="#Degradado_sin_nombre"/><linearGradient id="Degradado_sin_nombre-3" x1="50.66" y1="104.65" x2="150.6" y2="104.65" xlink:href="#Degradado_sin_nombre"/></defs><g id="Capa_2" data-name="Capa 2"><rect class="cls-1" x="11.26" y="74.32" width="35.86" height="41.01"/><path id="path5113" class="cls-2" d="M5.7,118.9,1,69.63l50.66,0L47,118.86l-20.72,5.57Zm37.49-2.69L47.12,74H26.37l.16,46.55Zm-18.75-36h-5l-.06,25.26-9.78-2.55,0,5.78,14.86,3.82Z"/><path id="path5159" class="cls-3" d="M22.78,112c-.66-.19-3.88-1-7.16-1.86l-5.94-1.53v-2.84c0-2.78,0-2.84.29-2.74s2.33.62,4.82,1.28l4.53,1.17,0-12.6,0-12.61h4.93v16c0,12.73,0,16-.17,16a13.09,13.09,0,0,1-1.37-.34Z"/><path id="path5157" class="cls-4" d="M9.58,108.69l0-5.78s6.24,1.68,9.78,2.55l.06-25.25h5v32.3Z"/><path id="path5117" class="cls-5" d="M26.37,74H47.12l-3.93,42.2-16.82,4.34Zm15.75,35.13,1.37-15.78L33.4,94.41V86l10.75,0,.44-5.75-16.23.07.22,21,9.8-1.6-.14,4.66-9.86,2.5.1,5.72,13.65-3.38Z"/></g><g id="Capa_3" data-name="Capa 3"><path id="path5113-2" data-name="path5113" class="cls-6" d="M154,118.9l-4.7-49.27,50.66,0-4.66,49.21-20.71,5.57Z"/><polygon class="cls-5" points="174.67 73.28 174.67 121.17 191.21 116.5 194.9 73.28 174.67 73.28"/><polygon class="cls-1" points="189.29 92.01 177.35 92.01 189.82 85.66 190.36 79.28 158.97 79.28 159.52 85.79 172.12 85.79 160.03 91.83 160.59 98.5 160.59 98.5 182.16 98.5 181.45 106.43 174.67 108.27 167.6 106.29 167.42 101.34 160.84 101.34 161.66 111.1 174.67 114.77 187.68 111.1 189.29 92.01 189.29 92.01"/></g><g id="Capa_1" data-name="Capa 1"><path class="cls-7" d="M150.6,38.57l-9.1,102-40.93,11.35L59.76,140.59l-9.1-102Z"/><path class="cls-5" d="M100.63,143.24l33.08-9.16,7.78-87.17H100.63Z"/><path class="cls-8" d="M82.93,71.91h17.7V59.4H69.26l.3,3.35,3.07,34.48h28V84.71H84.08Zm2.85,31.58H73.19l1.75,19.65,25.64,7.14h0v-13h0l-13.94-3.76-.88-10Z"/><path class="cls-1" d="M100.59,97.26H116l-1.45,16.23-14,3.76v13l25.65-7.11.19-2.11,2.94-32.94.31-3.36H100.59V97.26Zm0-25.36h30.2L131,69.1l.57-6.34.3-3.36H100.59V71.91Z"/></g></svg>