<svg id="Capa_1" data-name="Capa 1" xmlns="http://www.w3.org/2000/svg" xmlns:xlink="http://www.w3.org/1999/xlink" viewBox="0 0 200 200"><defs><style>.cls-1{fill:url(#Degradado_sin_nombre_3);}.cls-2{fill:#3ebced;}.cls-3{fill:#f4f3f4;}.cls-4{fill:#fff;}</style><linearGradient id="Degradado_sin_nombre_3" x1="12.18" y1="100" x2="187.82" y2="100" gradientUnits="userSpaceOnUse"><stop offset="0" stop-color="#2daeda"/><stop offset="1" stop-color="#2daeda"/></linearGradient></defs><path class="cls-1" d="M187.82.4l-16,179.26L99.89,199.6,28.16,179.69,12.18.4Z"/><path class="cls-2" d="M100,184.36l58.12-16.11L171.8,15.06H100Z"/><path class="cls-3" d="M68.89,59H100v-22H44.86l.53,5.9,5.4,60.59H100v-22H70.9Zm5,55.5H51.77l3.08,34.52L99.9,161.57l.1,0V138.66l-.1,0-24.49-6.61-1.56-17.54Z"/><path class="cls-4" d="M99.92,103.54H127l-2.55,28.52-24.53,6.62v22.88L145,149.06l.33-3.71,5.17-57.89.54-5.91H99.92v22Zm0-44.56V59H153l.44-4.95,1-11.14.53-5.9H99.92V59Z"/></svg>