<svg id="Capa_1" data-name="Capa 1" xmlns="http://www.w3.org/2000/svg" xmlns:xlink="http://www.w3.org/1999/xlink" viewBox="0 0 200 200"><defs><style>.cls-1,.cls-4{fill:#fff;}.cls-2{fill:url(#Degradado_sin_nombre_3);}.cls-3{fill:#ebebeb;fill-opacity:0;}.cls-3,.cls-4{isolation:isolate;opacity:0.99;}.cls-4{fill-opacity:0.92;}.cls-5{fill:#3ebced;}</style><linearGradient id="Degradado_sin_nombre_3" x1="9.76" y1="100" x2="194.65" y2="100" gradientUnits="userSpaceOnUse"><stop offset="0" stop-color="#2daeda"/><stop offset="1" stop-color="#2daeda"/></linearGradient></defs><g id="g5193"><rect class="cls-1" x="47.19" y="17.12" width="130.87" height="149.64"/><path id="path5113" class="cls-2" d="M26.92,179.82,9.76,0,194.65.07l-17,179.61L102.06,200ZM163.72,170,178.07,16H102.35l.58,169.87ZM95.29,38.57H76.9l-.22,92.18L41,121.48l.07,21.07,54.23,13.94Z"/><path id="path5159" class="cls-3" d="M89.23,154.77c-2.38-.69-14.14-3.71-26.11-6.79l-21.7-5.56V132.05c0-10.16,0-10.36,1.08-10,.58.21,8.51,2.27,17.6,4.67L76.61,131l.14-46,.15-46h18V97.53c0,46.46-.14,58.48-.64,58.48s-2.67-.62-5-1.24Z"/><path id="path5157" class="cls-4" d="M41.06,142.55,41,121.48s22.78,6.11,35.69,9.27l.22-92.11H95.29V156.49Z"/><path id="path5117" class="cls-5" d="M102.35,15.92h75.72l-14.35,154-61.37,15.85Zm57.47,128.21,5-57.58L128,90.46V59.71l39.23-.14,1.59-21-59.2.28.79,76.46,35.77-5.84-.51,17-36,9.13.36,20.87,49.82-12.36Z"/></g></svg>