<svg id="Capa_1" data-name="Capa 1" xmlns="http://www.w3.org/2000/svg" viewBox="0 0 200 200"><defs><style>.cls-1{fill:#3ebced;}</style></defs><path class="cls-1" d="M100.63,84.83A17.57,17.57,0,1,0,118.2,102.4,17.56,17.56,0,0,0,100.63,84.83Zm0,0A17.57,17.57,0,1,0,118.2,102.4,17.56,17.56,0,0,0,100.63,84.83Zm0,0A17.57,17.57,0,1,0,118.2,102.4,17.56,17.56,0,0,0,100.63,84.83Zm0,0A17.57,17.57,0,1,0,118.2,102.4,17.56,17.56,0,0,0,100.63,84.83Zm0,0A17.57,17.57,0,1,0,118.2,102.4,17.56,17.56,0,0,0,100.63,84.83Zm0,0A17.57,17.57,0,1,0,118.2,102.4,17.56,17.56,0,0,0,100.63,84.83Zm0,0A17.57,17.57,0,1,0,118.2,102.4,17.56,17.56,0,0,0,100.63,84.83Zm0,0A17.57,17.57,0,1,0,118.2,102.4,17.56,17.56,0,0,0,100.63,84.83Zm63.39-13c-2.09-.72-4.21-1.39-6.33-2,.35-1.43.68-2.87,1-4.32,4.79-23.27,1.65-42-9-48.19-10.26-5.92-27.05.25-44,15q-2.5,2.19-4.9,4.5-1.6-1.55-3.26-3C79.69,18,61.88,11.33,51.19,17.52c-10.25,5.94-13.29,23.56-9,45.62.42,2.19.91,4.36,1.45,6.52-2.52.71-5,1.48-7.29,2.29C15.56,79.21,2.25,90.59,2.25,102.4c0,12.19,14.28,24.42,36,31.84,1.76.59,3.53,1.15,5.32,1.66-.58,2.33-1.1,4.67-1.54,7-4.12,21.68-.91,38.89,9.32,44.79,10.56,6.09,28.29-.18,45.55-15.27q2.06-1.78,4.11-3.78,2.6,2.51,5.32,4.85c16.72,14.39,33.24,20.2,43.45,14.29,10.56-6.11,14-24.6,9.53-47.09-.34-1.72-.74-3.47-1.18-5.26q1.88-.55,3.66-1.14C184.33,126.84,199,114.76,199,102.4,199,90.55,185.27,79.09,164,71.78ZM111.13,38.61C125.66,26,139.24,21,145.42,24.55c6.59,3.8,9.15,19.12,5,39.21-.28,1.31-.57,2.62-.89,3.92a200.1,200.1,0,0,0-26.31-4.16,198.33,198.33,0,0,0-16.63-20.76Q108.83,40.63,111.13,38.61ZM60.35,112.48q2.67,5.16,5.57,10.18t6.18,10.11A179.63,179.63,0,0,1,54,129.85C55.71,124.24,57.85,118.41,60.35,112.48Zm0-19.77c-2.45-5.8-4.54-11.51-6.26-17,5.62-1.26,11.61-2.28,17.84-3.06q-3.14,4.89-6,9.91T60.34,92.71Zm4.46,9.89q3.89-8.09,8.38-15.86t9.53-15.19c5.86-.44,11.85-.67,17.92-.67s12.1.23,17.94.68q5,7.39,9.49,15.13t8.48,15.79q-3.94,8.11-8.45,15.93t-9.45,15.23c-5.83.41-11.86.63-18,.63s-12.08-.19-17.82-.56q-5.09-7.45-9.61-15.26T64.8,102.6Zm70.57,20c2-3.43,3.88-6.9,5.7-10.42a177.36,177.36,0,0,1,6.61,17.31,179.62,179.62,0,0,1-18.36,3.13Q132.44,127.67,135.37,122.6ZM141,92.72q-2.73-5.18-5.66-10.24t-6-9.84c6.27.8,12.29,1.85,17.94,3.14C145.59,81.21,143.48,86.89,141,92.72ZM100.72,48.77a178.91,178.91,0,0,1,11.58,14q-11.62-.55-23.25,0C92.87,57.7,96.78,53,100.72,48.77ZM55.4,24.8C62,21,76.54,26.42,91.88,40c1,.87,2,1.78,3,2.73A199.78,199.78,0,0,0,78.07,63.51a203.11,203.11,0,0,0-26.25,4.08q-.76-3-1.36-6.07C46.76,42.63,49.22,28.38,55.4,24.8Zm-9.6,103q-2.44-.69-4.85-1.52c-9.59-3.27-17.52-7.54-23-12.19-4.88-4.17-7.34-8.33-7.34-11.69,0-7.17,10.68-16.3,28.49-22.51q3.36-1.17,6.77-2.14a202.58,202.58,0,0,0,9.6,24.85A205.75,205.75,0,0,0,45.8,127.8Zm45.55,38.31c-7.63,6.68-15.28,11.41-22,13.79h0c-6.06,2.14-10.88,2.21-13.8.52-6.21-3.58-8.79-17.39-5.27-35.93q.63-3.28,1.44-6.53a199.2,199.2,0,0,0,26.51,3.84A206.71,206.71,0,0,0,95.1,162.67C93.88,163.85,92.63,165,91.35,166.11Zm9.6-9.49c-4-4.3-8-9.06-11.83-14.17q5.64.23,11.51.22t11.87-.26A176,176,0,0,1,101,156.62ZM152,168.31c-1.18,6.31-3.54,10.53-6.45,12.22-6.2,3.58-19.46-1.08-33.76-13.39-1.64-1.41-3.29-2.92-5-4.51a196.5,196.5,0,0,0,16.5-20.94A194.54,194.54,0,0,0,150,137.58c.4,1.62.76,3.21,1.07,4.76C153,152.29,153.3,161.28,152,168.31Zm7.13-42h0c-1.08.36-2.18.7-3.31,1a197.58,197.58,0,0,0-10-24.92,196.1,196.1,0,0,0,9.58-24.56c2,.58,4,1.2,5.84,1.84C179.49,86,190.6,95.26,190.6,102.4,190.6,110,178.6,119.88,159.13,126.33ZM100.63,120A17.57,17.57,0,1,0,83.06,102.4,17.57,17.57,0,0,0,100.63,120Zm0-35.14A17.57,17.57,0,1,0,118.2,102.4,17.56,17.56,0,0,0,100.63,84.83Zm0,0A17.57,17.57,0,1,0,118.2,102.4,17.56,17.56,0,0,0,100.63,84.83Zm0,0A17.57,17.57,0,1,0,118.2,102.4,17.56,17.56,0,0,0,100.63,84.83Zm0,0A17.57,17.57,0,1,0,118.2,102.4,17.56,17.56,0,0,0,100.63,84.83Zm0,0A17.57,17.57,0,1,0,118.2,102.4,17.56,17.56,0,0,0,100.63,84.83Zm0,0A17.57,17.57,0,1,0,118.2,102.4,17.56,17.56,0,0,0,100.63,84.83Z"/></svg>